<?xml version="1.0" standalone="no"?>
<!DOCTYPE svg PUBLIC "-//W3C//DTD SVG 20010904//EN"
 "http://www.w3.org/TR/2001/REC-SVG-20010904/DTD/svg10.dtd">
<svg version="1.0" xmlns="http://www.w3.org/2000/svg"
 width="402.000000pt" height="402.000000pt" viewBox="0 0 402.000000 402.000000"
 preserveAspectRatio="xMidYMid meet">
<metadata>
Created by potrace 1.14, written by Peter Selinger 2001-2017
</metadata>
<g transform="translate(0.000000,402.000000) scale(0.100000,-0.100000)"
fill="#000000" stroke="none">
<path d="M450 2575 l0 -415 140 0 140 0 0 140 0 140 145 0 145 0 0 -140 0
-140 140 0 140 0 0 415 0 415 -140 0 -140 0 0 -135 0 -135 -145 0 -145 0 0
135 0 135 -140 0 -140 0 0 -415z"/>
<path d="M1590 2855 l0 -135 425 0 425 0 0 135 0 135 -425 0 -425 0 0 -135z"/>
<path d="M2730 2575 l0 -415 140 0 140 0 0 280 0 280 145 0 145 0 0 -280 0
-280 140 0 140 0 0 415 0 415 -425 0 -425 0 0 -415z"/>
<path d="M1590 2295 l0 -135 425 0 425 0 0 135 0 135 -425 0 -425 0 0 -135z"/>
<path d="M1873 1991 c-52 -13 -96 -44 -128 -90 l-30 -43 -3 -258 c-4 -290 1
-321 55 -381 79 -88 278 -94 367 -11 61 58 66 81 66 357 0 142 -5 266 -10 287
-14 49 -53 94 -103 119 -44 23 -161 34 -214 20z m184 -81 c64 -39 68 -57 68
-335 0 -233 -1 -252 -20 -285 -31 -52 -78 -75 -151 -74 -73 1 -119 24 -149 74
-19 33 -20 52 -20 285 0 232 1 252 20 284 29 49 77 71 155 71 47 0 74 -6 97
-20z"/>
<path d="M1014 1973 c13 -45 216 -803 216 -807 0 -4 20 -6 45 -6 25 0 45 2 45
4 0 2 50 187 110 411 61 223 110 409 110 411 0 2 -17 4 -38 4 l-37 0 -94 -365
c-52 -201 -95 -364 -96 -362 -1 1 -44 165 -95 365 l-93 362 -39 0 c-33 0 -38
-3 -34 -17z"/>
<path d="M2390 1955 l0 -35 105 0 105 0 0 -380 0 -380 35 0 35 0 0 380 0 379
108 3 107 3 3 33 3 32 -250 0 -251 0 0 -35z"/>
<path d="M3090 1575 l0 -415 230 0 230 0 0 30 0 30 -195 0 -195 0 0 175 0 175
160 0 160 0 0 30 0 30 -160 0 -160 0 0 145 0 145 195 0 195 0 0 35 0 35 -230
0 -230 0 0 -415z"/>
<path d="M545 1275 c-50 -49 -20 -125 50 -125 44 0 75 29 75 70 0 38 -39 80
-75 80 -14 0 -37 -11 -50 -25z"/>
</g>
</svg>
