<svg id="hen-vote-logo" width="170" height="22" viewBox="0 0 170 22" fill="none" xmlns="http://www.w3.org/2000/svg">
<path d="M93.7 21.779C93.4487 21.779 93.1973 21.7403 92.946 21.663C92.6947 21.5857 92.4723 21.46 92.279 21.286C92.105 21.0927 91.9793 20.8703 91.902 20.619C91.8247 20.3677 91.786 20.1163 91.786 19.865C91.786 19.5943 91.8247 19.3333 91.902 19.082C91.9793 18.8307 92.105 18.618 92.279 18.444C92.4723 18.2507 92.6947 18.1153 92.946 18.038C93.1973 17.9607 93.4487 17.922 93.7 17.922C93.9513 17.922 94.2027 17.9607 94.454 18.038C94.7053 18.1153 94.918 18.2507 95.092 18.444C95.2853 18.618 95.4207 18.8307 95.498 19.082C95.5753 19.3333 95.614 19.5943 95.614 19.865C95.614 20.1163 95.5753 20.3677 95.498 20.619C95.4207 20.8703 95.2853 21.0927 95.092 21.286C94.918 21.46 94.7053 21.5857 94.454 21.663C94.2027 21.7403 93.9513 21.779 93.7 21.779Z" fill="black"/>
<path d="M110.016 21.547L104.274 0.232H106.246L109.929 14.442C110.122 15.196 110.315 15.9597 110.509 16.733C110.702 17.487 110.895 18.2507 111.089 19.024C111.282 18.2507 111.475 17.487 111.669 16.733C111.862 15.9597 112.055 15.196 112.249 14.442L115.932 0.232H117.904L112.162 21.547H110.016Z" fill="black"/>
<path d="M128.477 21.779C127.936 21.779 127.395 21.7307 126.853 21.634C126.312 21.5567 125.79 21.4117 125.287 21.199C124.785 20.967 124.33 20.6673 123.924 20.3C123.518 19.9327 123.18 19.517 122.909 19.053C122.639 18.5697 122.445 18.0573 122.329 17.516C122.233 16.9747 122.184 16.4333 122.184 15.892V5.887C122.184 5.34567 122.233 4.80433 122.329 4.263C122.445 3.72167 122.639 3.219 122.909 2.755C123.18 2.27167 123.518 1.84633 123.924 1.479C124.33 1.11167 124.785 0.821667 125.287 0.608999C125.79 0.377 126.312 0.222333 126.853 0.145C127.395 0.0483334 127.936 0 128.477 0C129.019 0 129.56 0.0483334 130.101 0.145C130.643 0.222333 131.165 0.377 131.667 0.608999C132.17 0.821667 132.624 1.11167 133.03 1.479C133.436 1.84633 133.775 2.27167 134.045 2.755C134.316 3.219 134.5 3.72167 134.596 4.263C134.712 4.80433 134.77 5.34567 134.77 5.887V15.892C134.77 16.4333 134.712 16.9747 134.596 17.516C134.5 18.0573 134.316 18.5697 134.045 19.053C133.775 19.517 133.436 19.9327 133.03 20.3C132.624 20.6673 132.17 20.967 131.667 21.199C131.165 21.4117 130.643 21.5567 130.101 21.634C129.56 21.7307 129.019 21.779 128.477 21.779ZM128.477 20.097C128.864 20.097 129.251 20.068 129.637 20.01C130.024 19.952 130.391 19.8457 130.739 19.691C131.087 19.517 131.406 19.2947 131.696 19.024C131.986 18.7533 132.218 18.4537 132.392 18.125C132.586 17.777 132.711 17.4193 132.769 17.052C132.847 16.6653 132.885 16.2787 132.885 15.892V5.887C132.885 5.50033 132.847 5.12333 132.769 4.756C132.711 4.36933 132.586 4.01167 132.392 3.683C132.218 3.335 131.986 3.02567 131.696 2.755C131.406 2.48433 131.087 2.27167 130.739 2.117C130.391 1.943 130.024 1.827 129.637 1.769C129.251 1.711 128.864 1.682 128.477 1.682C128.091 1.682 127.704 1.711 127.317 1.769C126.931 1.827 126.563 1.943 126.215 2.117C125.867 2.27167 125.548 2.48433 125.258 2.755C124.968 3.02567 124.727 3.335 124.533 3.683C124.359 4.01167 124.234 4.36933 124.156 4.756C124.098 5.12333 124.069 5.50033 124.069 5.887V15.892C124.069 16.2787 124.098 16.6653 124.156 17.052C124.234 17.4193 124.359 17.777 124.533 18.125C124.727 18.4537 124.968 18.7533 125.258 19.024C125.548 19.2947 125.867 19.517 126.215 19.691C126.563 19.8457 126.931 19.952 127.317 20.01C127.704 20.068 128.091 20.097 128.477 20.097Z" fill="black"/>
<path d="M144.938 21.547V1.914H139.457V0.232H152.275V1.914H146.794V21.547H144.938Z" fill="black"/>
<path d="M157.426 21.547V0.232H169.316V1.914H159.311V9.396H167.489V11.078H159.311V19.865H169.316V21.547H157.426Z" fill="black"/>
<path fill-rule="evenodd" clip-rule="evenodd" d="M50.8438 7.56278V0.547119H29.1562V7.56278H50.8438ZM7.18133 0.547119H0V21.8805H7.18133V14.7216H14.5063V21.8805H21.6876V0.547119H14.5063V7.56278H7.18133V0.547119ZM58.3124 0.547119H80V21.8805H72.8187V7.56278H65.4937V21.8805H58.3124V0.547119ZM50.8438 21.8805V14.8648H29.1562V21.8805H50.8438Z" fill="black"/>
</svg>
