<svg width="155" height="23" viewBox="0 0 155 23" fill="none" xmlns="http://www.w3.org/2000/svg">
<path d="M95.0154 21.9999L89.2734 0.684881H91.2454L94.9284 14.8949C95.1218 15.6489 95.3151 16.4125 95.5084 17.1859C95.7018 17.9399 95.8951 18.7035 96.0884 19.4769C96.2818 18.7035 96.4751 17.9399 96.6684 17.1859C96.8618 16.4125 97.0551 15.6489 97.2484 14.8949L100.931 0.684881H102.903L97.1614 21.9999H95.0154Z" fill="black"/>
<path d="M113.477 22.2319C112.936 22.2319 112.394 22.1835 111.853 22.0869C111.312 22.0095 110.79 21.8645 110.287 21.6519C109.784 21.4199 109.33 21.1202 108.924 20.7529C108.518 20.3855 108.18 19.9699 107.909 19.5059C107.638 19.0225 107.445 18.5102 107.329 17.9689C107.232 17.4275 107.184 16.8862 107.184 16.3449V6.33988C107.184 5.79855 107.232 5.25721 107.329 4.71588C107.445 4.17455 107.638 3.67188 107.909 3.20788C108.18 2.72455 108.518 2.29921 108.924 1.93188C109.33 1.56455 109.784 1.27455 110.287 1.06188C110.79 0.829881 111.312 0.675214 111.853 0.597881C112.394 0.501214 112.936 0.452881 113.477 0.452881C114.018 0.452881 114.56 0.501214 115.101 0.597881C115.642 0.675214 116.164 0.829881 116.667 1.06188C117.17 1.27455 117.624 1.56455 118.03 1.93188C118.436 2.29921 118.774 2.72455 119.045 3.20788C119.316 3.67188 119.499 4.17455 119.596 4.71588C119.712 5.25721 119.77 5.79855 119.77 6.33988V16.3449C119.77 16.8862 119.712 17.4275 119.596 17.9689C119.499 18.5102 119.316 19.0225 119.045 19.5059C118.774 19.9699 118.436 20.3855 118.03 20.7529C117.624 21.1202 117.17 21.4199 116.667 21.6519C116.164 21.8645 115.642 22.0095 115.101 22.0869C114.56 22.1835 114.018 22.2319 113.477 22.2319ZM113.477 20.5499C113.864 20.5499 114.25 20.5209 114.637 20.4629C115.024 20.4049 115.391 20.2985 115.739 20.1439C116.087 19.9699 116.406 19.7475 116.696 19.4769C116.986 19.2062 117.218 18.9065 117.392 18.5779C117.585 18.2299 117.711 17.8722 117.769 17.5049C117.846 17.1182 117.885 16.7315 117.885 16.3449V6.33988C117.885 5.95321 117.846 5.57621 117.769 5.20888C117.711 4.82221 117.585 4.46455 117.392 4.13588C117.218 3.78788 116.986 3.47855 116.696 3.20788C116.406 2.93721 116.087 2.72455 115.739 2.56988C115.391 2.39588 115.024 2.27988 114.637 2.22188C114.25 2.16388 113.864 2.13488 113.477 2.13488C113.09 2.13488 112.704 2.16388 112.317 2.22188C111.93 2.27988 111.563 2.39588 111.215 2.56988C110.867 2.72455 110.548 2.93721 110.258 3.20788C109.968 3.47855 109.726 3.78788 109.533 4.13588C109.359 4.46455 109.233 4.82221 109.156 5.20888C109.098 5.57621 109.069 5.95321 109.069 6.33988V16.3449C109.069 16.7315 109.098 17.1182 109.156 17.5049C109.233 17.8722 109.359 18.2299 109.533 18.5779C109.726 18.9065 109.968 19.2062 110.258 19.4769C110.548 19.7475 110.867 19.9699 111.215 20.1439C111.563 20.2985 111.93 20.4049 112.317 20.4629C112.704 20.5209 113.09 20.5499 113.477 20.5499Z" fill="black"/>
<path d="M129.938 21.9999V2.36688H124.457V0.684881H137.275V2.36688H131.794V21.9999H129.938Z" fill="black"/>
<path d="M142.425 21.9999V0.684881H154.315V2.36688H144.31V9.84888H152.488V11.5309H144.31V20.3179H154.315V21.9999H142.425Z" fill="black"/>
<path fill-rule="evenodd" clip-rule="evenodd" d="M50.8438 8.01566V1H29.1562V8.01566H50.8438ZM7.18133 1H0V22.3333H7.18133V15.1745H14.5063V22.3333H21.6876V1H14.5063V8.01566H7.18133V1ZM58.3124 1H80V22.3333H72.8187V8.01566H65.4937V22.3333H58.3124V1ZM50.8438 22.3333V15.3177H29.1562V22.3333H50.8438Z" fill="black"/>
</svg>